<svg width="108" height="44" viewBox="0 0 108 44" fill="none" xmlns="http://www.w3.org/2000/svg">
<path d="M5.34375 29.7344C4.47656 29.7344 3.69531 29.5195 3 29.0898C2.29688 28.6602 1.73047 28.082 1.30078 27.3555C0.878906 26.6289 0.667969 25.8164 0.667969 24.918V17.3125C0.667969 16.4375 0.882812 15.6406 1.3125 14.9219C1.73438 14.1953 2.30078 13.6172 3.01172 13.1875C3.72266 12.75 4.5 12.5312 5.34375 12.5312C6.22656 12.5312 7.02344 12.7422 7.73438 13.1641C8.44531 13.5938 9.00781 14.168 9.42188 14.8867C9.84375 15.6055 10.0547 16.4141 10.0547 17.3125V18.4141C10.0547 18.4766 10.0156 18.5078 9.9375 18.5078H7.24219C7.17969 18.5078 7.14844 18.4766 7.14844 18.4141V17.5C7.14844 16.8906 6.97656 16.3867 6.63281 15.9883C6.28906 15.5898 5.85938 15.3906 5.34375 15.3906C4.88281 15.3906 4.47266 15.582 4.11328 15.9648C3.75391 16.3477 3.57422 16.7969 3.57422 17.3125V24.918C3.57422 25.4414 3.75 25.8945 4.10156 26.2773C4.45312 26.6523 4.86719 26.8398 5.34375 26.8398C5.85938 26.8398 6.28906 26.6562 6.63281 26.2891C6.97656 25.9141 7.14844 25.457 7.14844 24.918V23.7344H5.47266C5.38672 23.7344 5.34375 23.6953 5.34375 23.6172V20.9336C5.34375 20.8555 5.38672 20.8164 5.47266 20.8164H9.96094C10.0234 20.8164 10.0547 20.8555 10.0547 20.9336V24.918C10.0547 25.8164 9.84375 26.6289 9.42188 27.3555C8.99219 28.082 8.42578 28.6602 7.72266 29.0898C7.01953 29.5195 6.22656 29.7344 5.34375 29.7344ZM10.9453 29.3828L13.9219 12.8945C13.9375 12.832 13.9766 12.8008 14.0391 12.8008H17.5195C17.582 12.8008 17.6211 12.832 17.6367 12.8945L20.4961 29.3828C20.5039 29.4609 20.4727 29.5 20.4023 29.5H17.7422C17.6641 29.5 17.6211 29.4609 17.6133 29.3828L17.3555 27.625H14.0859L13.8281 29.3828C13.8203 29.4609 13.7812 29.5 13.7109 29.5H11.0391C10.9766 29.5 10.9453 29.4609 10.9453 29.3828ZM15.8906 18.3203L15.75 17.4297L15.6445 18.3203L14.5664 25.0586H16.875L15.8906 18.3203ZM24.8086 29.5H22.0898C22.0273 29.5 21.9961 29.4609 21.9961 29.3828L22.043 12.8945C22.043 12.832 22.0742 12.8008 22.1367 12.8008H25.0664C25.1289 12.8008 25.1836 12.832 25.2305 12.8945L27.4219 16.0586L29.6016 12.8945C29.6484 12.832 29.707 12.8008 29.7773 12.8008H32.7188C32.7891 12.8008 32.8242 12.832 32.8242 12.8945L32.8711 29.3828C32.8711 29.4609 32.8398 29.5 32.7773 29.5H30.0586C29.9961 29.5 29.9648 29.4609 29.9648 29.3828L29.9414 17.1367L27.4219 20.793L24.9258 17.1367L24.9023 29.3828C24.9023 29.4609 24.8711 29.5 24.8086 29.5ZM42.7383 29.5H34.9805C34.918 29.5 34.8867 29.4609 34.8867 29.3828L34.9102 12.8945C34.9102 12.832 34.9414 12.8008 35.0039 12.8008H42.7148C42.7773 12.8008 42.8086 12.8398 42.8086 12.918V15.6016C42.8086 15.6641 42.7773 15.6953 42.7148 15.6953H37.793V19.4453H42.7148C42.7773 19.4453 42.8086 19.4766 42.8086 19.5391L42.832 22.2578C42.832 22.3203 42.8008 22.3516 42.7383 22.3516H37.793V26.5469H42.7383C42.8008 26.5469 42.832 26.5859 42.832 26.6641V29.4062C42.832 29.4688 42.8008 29.5 42.7383 29.5Z" fill="white"/>
<circle cx="54" cy="22" r="3" fill="white"/>
<circle cx="61" cy="29" r="3" fill="white"/>
<circle cx="68" cy="22" r="3" fill="white"/>
<circle cx="61" cy="15" r="3" fill="white"/>
<path d="M80.7617 29.5H78.043C77.9805 29.5 77.9492 29.4609 77.9492 29.3828L77.9961 12.918C77.9961 12.8398 78.0273 12.8008 78.0898 12.8008H80.7852C80.8477 12.8008 80.8789 12.8398 80.8789 12.918V18.6016L84.6406 12.8945C84.7031 12.832 84.7617 12.8008 84.8164 12.8008H87.5703C87.6406 12.8008 87.6562 12.832 87.6172 12.8945L83.4688 19.5156L88.1211 29.4062C88.1602 29.4688 88.1211 29.5 88.0039 29.5H85.0742C84.9961 29.5 84.9492 29.4688 84.9336 29.4062L81.6875 22.3516L80.8555 23.6641V29.3828C80.8555 29.4609 80.8242 29.5 80.7617 29.5ZM97.0508 29.5H89.293C89.2305 29.5 89.1992 29.4609 89.1992 29.3828L89.2227 12.8945C89.2227 12.832 89.2539 12.8008 89.3164 12.8008H97.0273C97.0898 12.8008 97.1211 12.8398 97.1211 12.918V15.6016C97.1211 15.6641 97.0898 15.6953 97.0273 15.6953H92.1055V19.4453H97.0273C97.0898 19.4453 97.1211 19.4766 97.1211 19.5391L97.1445 22.2578C97.1445 22.3203 97.1133 22.3516 97.0508 22.3516H92.1055V26.5469H97.0508C97.1133 26.5469 97.1445 26.5859 97.1445 26.6641V29.4062C97.1445 29.4688 97.1133 29.5 97.0508 29.5ZM103.789 29.5H101.035C100.98 29.5 100.953 29.4688 100.953 29.4062L100.977 22.5859L97.7656 12.8945C97.75 12.832 97.7734 12.8008 97.8359 12.8008H100.508C100.586 12.8008 100.633 12.832 100.648 12.8945L102.418 19.3516L104.223 12.8945C104.238 12.832 104.277 12.8008 104.34 12.8008H107.035C107.098 12.8008 107.121 12.832 107.105 12.8945L103.859 22.4922L103.883 29.4062C103.883 29.4688 103.852 29.5 103.789 29.5Z" fill="white"/>
</svg>
